<svg version="1.1" xmlns="http://www.w3.org/2000/svg" xmlns:xlink="http://www.w3.org/1999/xlink" width="432.64289" height="432.64282" viewBox="0,0,432.64289,432.64282"><defs><linearGradient x1="239.87496" y1="179.72752" x2="239.87496" y2="399.07141" gradientUnits="userSpaceOnUse" id="color-1"><stop offset="0" stop-color="#ffffff"/><stop offset="1" stop-color="#ffffff" stop-opacity="0"/></linearGradient><linearGradient x1="239.87496" y1="185.77241" x2="239.87496" y2="-33.57141" gradientUnits="userSpaceOnUse" id="color-2"><stop offset="0" stop-color="#ffffff"/><stop offset="1" stop-color="#ffffff" stop-opacity="0"/></linearGradient><linearGradient x1="242.89744" y1="179.72752" x2="23.55355" y2="179.72752" gradientUnits="userSpaceOnUse" id="color-3"><stop offset="0" stop-color="#ffffff"/><stop offset="1" stop-color="#ffffff" stop-opacity="0"/></linearGradient><linearGradient x1="236.85248" y1="179.72752" x2="456.19638" y2="179.72752" gradientUnits="userSpaceOnUse" id="color-4"><stop offset="0" stop-color="#ffffff"/><stop offset="1" stop-color="#ffffff" stop-opacity="0"/></linearGradient><linearGradient x1="242.01218" y1="177.5903" x2="86.91266" y2="332.68982" gradientUnits="userSpaceOnUse" id="color-5"><stop offset="0" stop-color="#ffffff"/><stop offset="1" stop-color="#ffffff" stop-opacity="0"/></linearGradient><linearGradient x1="237.73775" y1="181.86473" x2="392.83727" y2="26.76522" gradientUnits="userSpaceOnUse" id="color-6"><stop offset="0" stop-color="#ffffff"/><stop offset="1" stop-color="#ffffff" stop-opacity="0"/></linearGradient><linearGradient x1="237.73775" y1="177.59031" x2="392.83727" y2="332.68989" gradientUnits="userSpaceOnUse" id="color-7"><stop offset="0" stop-color="#ffffff"/><stop offset="1" stop-color="#ffffff" stop-opacity="0"/></linearGradient><linearGradient x1="242.01218" y1="181.86474" x2="86.91259" y2="26.76515" gradientUnits="userSpaceOnUse" id="color-8"><stop offset="0" stop-color="#ffffff"/><stop offset="1" stop-color="#ffffff" stop-opacity="0"/></linearGradient></defs><g transform="translate(-23.55355,33.57141)"><g data-paper-data="{&quot;isPaintingLayer&quot;:true}" fill-rule="nonzero" stroke="none" stroke-width="0" stroke-linecap="butt" stroke-linejoin="miter" stroke-miterlimit="10" stroke-dasharray="" stroke-dashoffset="0" style="mix-blend-mode: normal"><g><g><path d="M194.96989,399.07141l45.14307,-219.34382l44.66707,219.34382z" fill="url(#color-1)"/><path d="M284.78004,-33.57141l-44.66707,219.34382l-45.14307,-219.34381z" data-paper-data="{&quot;index&quot;:null}" fill="url(#color-2)"/></g><g><path d="M23.55355,134.82245l219.34381,45.14307l-219.34381,44.66707z" fill="url(#color-3)"/><path d="M456.19638,224.63259l-219.34382,-44.66707l219.34389,-45.14307z" data-paper-data="{&quot;index&quot;:null}" fill="url(#color-4)"/></g><g><path d="M55.15999,300.93714l187.02047,-123.17854l-123.51512,186.6839z" fill="url(#color-5)"/><path d="M424.58994,58.5179l-186.68389,123.51513l123.17855,-187.02047z" data-paper-data="{&quot;index&quot;:null}" fill="url(#color-6)"/></g><g data-paper-data="{&quot;index&quot;:null}"><path d="M361.08459,364.44256l-123.51513,-186.68389l187.02047,123.17854z" fill="url(#color-7)"/><path d="M118.66527,-4.98753l123.17862,187.02055l-186.68389,-123.51513z" data-paper-data="{&quot;index&quot;:null}" fill="url(#color-8)"/></g></g></g></g></svg>